<?xml version="1.0" encoding="UTF-8"?>
<svg xmlns="http://www.w3.org/2000/svg" viewBox="0 0 64 64" width="512" height="512"><g id="Layer_32" data-name="Layer 32"><path d="M57.355,2H36.645a4.645,4.645,0,0,0-4.591,5.351l1.338,8.7A4.662,4.662,0,0,0,38,20h7l-1,4,6-4h6a4.662,4.662,0,0,0,4.608-3.953l1.338-8.7A4.645,4.645,0,0,0,57.355,2Z" style="fill:#66c3e9"/><path d="M57.355,2H36.645A4.609,4.609,0,0,0,35,2.314v8.275A7.411,7.411,0,0,0,42.411,18h17.4a4.629,4.629,0,0,0,.8-1.953l1.338-8.7A4.645,4.645,0,0,0,57.355,2Z" style="fill:#8adef9"/><path d="M4,55.828V60a2,2,0,0,0,2,2h4a2,2,0,0,0,2-2V56Z" style="fill:#383838"/><path d="M10,58.173a2,2,0,0,1-2,2H4.018C4.013,60.115,4,60.059,4,60V55.828l6,.129Z" style="fill:#4c4c4c"/><path d="M48,55.828V60a2,2,0,0,1-2,2H42a2,2,0,0,1-2-2V56Z" style="fill:#383838"/><path d="M42,58.173a2,2,0,0,0,2,2h3.982c.005-.057.017-.113.017-.172V55.828l-6,.129Z" style="fill:#4c4c4c"/><path d="M6.375,36.625l-2.536-.362A2.143,2.143,0,0,1,2,34.142H2A2.139,2.139,0,0,1,4.139,32H47.861A2.139,2.139,0,0,1,50,34.142h0a2.143,2.143,0,0,1-1.839,2.121l-2.536.362Z" style="fill:#ee9224"/><path d="M47,56a3,3,0,0,0,3-3h0V45h0a9.653,9.653,0,0,0-2.828-6.827L44,35l-1.948-7.141A5.236,5.236,0,0,0,37,24H15a5.236,5.236,0,0,0-5.052,3.859L8,35,4.828,38.172A9.653,9.653,0,0,0,2,45H2v8H2a3,3,0,0,0,3,3Z" style="fill:#f2b129"/><path d="M50,53V45h0a9.653,9.653,0,0,0-2.828-6.827L44,35l-1.948-7.141A5.236,5.236,0,0,0,37,24H15a5.205,5.205,0,0,0-1.227.163,5.187,5.187,0,0,0-.825,1.7L11,33,7.828,36.172A9.653,9.653,0,0,0,5,43H5v8a3,3,0,0,0,3,3H49.816A2.962,2.962,0,0,0,50,53Z" style="fill:#eed05f"/><path d="M16,44H36a0,0,0,0,1,0,0v0a4,4,0,0,1-4,4H20a4,4,0,0,1-4-4v0A0,0,0,0,1,16,44Z" style="fill:#383838"/><path d="M17,56h0a4,4,0,0,1,4-4H31a4,4,0,0,1,4,4h0" style="fill:#383838"/><polyline points="20 24 22 20 29 20 31 24" style="fill:#f2b129"/><polygon points="35.001 10 37 10 37 15 39 15 39 10 41 10 41 8 35.001 8 35.001 10" style="fill:#fff"/><path d="M45.707,8.293a1,1,0,0,0-1.414,0l-2,2A1,1,0,0,0,42,11v4h2V14h2v1h2V11a1,1,0,0,0-.293-.707ZM44,12v-.586l1-1,1,1V12Z" style="fill:#fff"/><path d="M55,10V8L53,8V9.5l-1,.75L51,9.5V8L49,8v2a1,1,0,0,0,.4.8l.933.7-.934.7a1,1,0,0,0-.4.8v2h2V13.5l1-.75,1,.75V15h2V13a1,1,0,0,0-.4-.8l-.934-.7.933-.7A1,1,0,0,0,55,10Z" style="fill:#fff"/><rect x="56" y="8" width="2" height="7" style="fill:#fff"/><path d="M42.052,27.859A5.236,5.236,0,0,0,37,24H15a5.236,5.236,0,0,0-5.052,3.859L8,35H44Z" style="fill:#66c3e9"/><path d="M37,24H17a5.236,5.236,0,0,0-5.052,3.859L10,35H44l-1.948-7.141A5.236,5.236,0,0,0,37,24Z" style="fill:#8adef9"/><path d="M12,44.146a1.854,1.854,0,0,0-1.025-1.658,18.648,18.648,0,0,0-6.281-1.855l-1.56-.174h0A9.653,9.653,0,0,0,2,45H2v1h8.146A1.854,1.854,0,0,0,12,44.146Z" style="fill:#f2b129"/><path d="M48.866,40.459l-1.56.174a18.648,18.648,0,0,0-6.281,1.855A1.854,1.854,0,0,0,41.854,46H50V45h0A9.653,9.653,0,0,0,48.866,40.459Z" style="fill:#f2b129"/><path d="M9,54a2.954,2.954,0,0,0-1.857-2.743l-1.287-.515A10.412,10.412,0,0,0,2,50H2v3a3,3,0,0,0,3,3H7A2,2,0,0,0,9,54Z" style="fill:#383838"/><path d="M44.857,51.257A2.954,2.954,0,0,0,43,54a2,2,0,0,0,2,2h2a3,3,0,0,0,3-3V50a10.407,10.407,0,0,0-3.855.743Z" style="fill:#383838"/><path d="M34.445,54A3.982,3.982,0,0,0,31,52H21a3.982,3.982,0,0,0-3.445,2Z" style="fill:#4c4c4c"/></g></svg>
