<svg id="Capa_1" enable-background="new 0 0 512 512" viewBox="0 0 512 512" xmlns="http://www.w3.org/2000/svg"><g><path d="m478.593 125.602v-125.602h-79.668l-69.894 125.602z" fill="#ff9c58"/><path d="m303.323 0h-79.668v125.602h149.562z" fill="#febb5c"/><path d="m478.593 95.602h-162.416l34.947 416.398h160.876v-269.051z" fill="#febb5c"/><path d="m223.655 95.602-33.407 147.347v269.051h160.876v-416.398z" fill="#fed95f"/><path d="m351.124 165.936 47.801 47.801v-118.135l-77.801-30z" fill="#519987"/><path d="m303.323 95.602v118.135l47.801-47.801v-100.334z" fill="#5db07f"/><path d="m398.925 95.602v-95.602h-47.801l-30 47.801 30 47.801z" fill="#3d8582"/><path d="m303.323 0h47.801v95.602h-47.801z" fill="#519987"/><path d="m0 321.752c0 105.157 85.091 190.248 190.248 190.248 0-105.156-85.091-190.248-190.248-190.248z" fill="#5db07f"/><path d="m190.248 242.949c-74.357 74.357-74.357 194.694 0 269.051 74.357-74.357 74.357-194.694 0-269.051z" fill="#519987"/></g><g/><g/><g/><g/><g/><g/><g/><g/><g/><g/><g/><g/><g/><g/><g/></svg>