<svg id="Capa_1" enable-background="new 0 0 512 512" height="512" viewBox="0 0 512 512" width="512" xmlns="http://www.w3.org/2000/svg"><g><g><path clip-rule="evenodd" d="m308.534 409.792c-.703 21.939 6.795 33.39 21.761 28.628 103.095-17.031 181.705-106.392 181.705-214.041 0-119.83-97.384-216.962-217.525-216.962-57.171 0-109.187 21.997-147.994 57.958-10.632 8.413-38.778 39.583-20.941 52.787z" fill="#fec165" fill-rule="evenodd"/></g><g><path clip-rule="evenodd" d="m308.534 409.792c96.388-7.157 172.362-87.434 172.362-185.413 0-102.682-83.472-185.939-186.42-185.939-54.828 0-104.149 23.633-138.241 61.201-87.456 63.421-120.083 239.719 30.781 306.937 38.895 17.353 57.611-55.591 121.518 3.214z" fill="#dff6fd" fill-rule="evenodd"/></g><g><path clip-rule="evenodd" d="m149.41 321.979c-4.92-7.654-9.519-15.862-13.707-24.363s-7.849-17.119-10.925-25.59c-14.761-40.839-9.548-80.364 6.941-83.139 28.937-13.759 33.857-29.359 26.594-74.492-2.724-21.062-7.059-51.619-22.435-61.931-8.494-5.667-28.644-4.294-38.456-1.986-19.651 4.614-40.446 16.883-54.709 30.642-26.418 25.444-40.096 64.268-42.234 95.262-3.28 46.711 10.368 107.211 38.543 163.299 27.297 56.468 67.568 105.399 107.605 133.297 26.535 18.492 66.865 33.799 104.618 31.345 20.385-1.344 43.786-8.296 60.246-19.426 8.23-5.55 22.376-19.105 23.255-28.833 1.582-17.703-20.414-40.576-35.732-56.147-31.924-34.383-47.769-40.956-77.643-29.125-12.915 10.021-48.354-11.801-71.961-48.813z" fill="#26a6fe" fill-rule="evenodd"/></g><g><path clip-rule="evenodd" d="m131.72 188.886c28.937-13.759 33.857-29.359 26.594-74.492-2.724-21.062-7.059-51.619-22.435-61.931-5.125-3.418-14.468-4.265-23.255-3.915 5.418 15.249 6.736 24.539 8.611 39.116 8.611 53.488 10.104 75.018-24.192 91.319-22.728 11.743-31.807 56.205-14.322 104.64 3.632 10.049 7.996 20.244 12.945 30.323 4.95 10.049 10.427 19.777 16.226 28.891 28 43.848 76.97 74.551 106.434 66.488 35.41-14.051 33.067-14.898 70.907 25.853 11.012 11.218 24.983 25.62 33.799 39.905 5.916-6.018 11.188-13.204 11.715-19.017 1.582-17.703-20.414-40.576-35.732-56.147-31.924-34.383-47.769-40.956-77.643-29.125-12.916 10.02-48.355-11.802-71.961-48.814-4.92-7.654-9.519-15.862-13.707-24.363s-7.849-17.119-10.925-25.59c-14.762-40.841-9.548-80.366 6.941-83.141z" fill="#0593fc" fill-rule="evenodd"/></g><g><path d="m371.037 235.29c-.023 0-.045 0-.067 0-4.267-.036-7.697-3.525-7.66-7.792.071-8.379.143-17.661.21-27.176h-51.618c-2.735 0-5.266-1.446-6.655-3.802-1.389-2.355-1.43-5.271-.106-7.664 4.076-7.37 40.016-72.247 46.796-80.526 6.789-8.308 13.861-7.233 16.585-6.386 5.794 1.801 9.918 7.574 10.507 14.707.354 4.302.227 38.68.046 68.218h7.426c4.267 0 7.726 3.459 7.726 7.726 0 4.268-3.459 7.726-7.726 7.726h-7.528c-.095 13.505-.184 24.126-.211 27.307-.037 4.245-3.489 7.662-7.725 7.662zm-46.005-50.421h38.589c.191-31.275.281-61.202.037-66.452-4.382 5.747-23.834 39.928-38.626 66.452z" fill="#025f80"/></g><g><path d="m249.92 235.583c-22.708 0-24.302-.542-25.379-.908-2.616-.869-4.6-2.863-5.396-5.456-1.426-4.64.482-7.13 7.58-16.395 6.057-7.907 17.33-22.624 36.268-49.614 5.936-8.441 9.746-16.056 11.335-22.648l.468-3.664c-.244-12.249-10.32-22.14-22.671-22.14-10.798 0-20.149 7.663-22.235 18.222-.827 4.186-4.893 6.91-9.077 6.081-4.186-.827-6.909-4.89-6.083-9.077 3.512-17.777 19.239-30.679 37.395-30.679 21.024 0 38.128 17.068 38.128 38.048 0 .327-.021.654-.062.979l-.586 4.587c-.032.254-.077.505-.134.754-1.986 8.63-6.64 18.191-13.833 28.42-17.533 24.987-28.574 39.576-35.01 47.992 12.556.078 32.09-.06 46.839-.246 4.274-.064 7.77 3.361 7.823 7.628.054 4.267-3.361 7.77-7.628 7.823-16.662.21-28.83.293-37.742.293zm-21.437-15.796" fill="#025f80"/></g><path clip-rule="evenodd" d="m391.449 294.343h-32.979v-32.893c0-1.139-.937-2.074-2.109-2.074h-32.979c-1.142 0-2.079.935-2.079 2.074v32.893h-32.979v-32.893c0-1.139-.937-2.074-2.109-2.074h-32.979c-1.142 0-2.079.935-2.079 2.074v32.893h-32.979c-1.142 0-2.109.935-2.109 2.103v32.893c0 1.139.966 2.074 2.109 2.074h32.979c1.142 0 2.079-.935 2.079-2.074v-32.893h32.979v32.893c0 1.139.966 2.074 2.109 2.074h32.979c1.142 0 2.079-.935 2.079-2.074v-32.893h32.979v32.893c0 1.139.967 2.074 2.109 2.074h32.979c1.142 0 2.079-.935 2.079-2.074v-32.893c.001-1.168-.937-2.103-2.079-2.103z" fill="#fdb441" fill-rule="evenodd"/><g><path clip-rule="evenodd" d="m295.237 38.441c89.271 13.818 157.571 90.822 157.571 183.718 0 89.508-63.38 164.234-147.818 181.966-.527.088-1.054.204-1.552.292 1.669 1.753 3.368 3.535 5.096 5.375 96.388-7.157 172.362-87.434 172.362-185.413 0-102.449-83.062-185.53-185.659-185.938z" fill="#c8effe" fill-rule="evenodd"/></g><g><path clip-rule="evenodd" d="m436.582 104.023c27.648 32.426 44.313 74.463 44.313 120.356 0 51.531-21.029 98.184-54.974 131.866-25.92 33.04-61.183 58.396-101.865 72.097 2.372 3.359 4.51 6.719 6.238 10.078 103.096-17.031 181.706-106.392 181.706-214.041 0-119.83-97.384-216.962-217.525-216.962-3.632 0-7.234.088-10.837.263 63.966 8.559 119.146 44.841 152.944 96.343z" fill="#fdb441" fill-rule="evenodd"/></g></g></svg>